<!DOCTYPE svg PUBLIC "-//W3C//DTD SVG 20010904//EN" "http://www.w3.org/TR/2001/REC-SVG-20010904/DTD/svg10.dtd">
<svg version="1.0" xmlns="http://www.w3.org/2000/svg" width="256px" height="256px" viewBox="0 0 2560 2560" preserveAspectRatio="xMidYMid meet">
<g id="layer101" fill="#230204" stroke="none">
 <path d="M596 2267 c-12 -9 -17 -23 -14 -47 4 -41 40 -60 86 -44 21 7 28 17 30 44 4 39 -16 60 -58 60 -14 0 -34 -6 -44 -13z"/>
 <path d="M1066 2214 c-38 -7 -83 -20 -100 -28 -17 -7 -42 -17 -56 -21 -14 -4 -27 -10 -30 -14 -5 -6 -79 -42 -90 -44 -3 0 -9 -4 -15 -9 -140 -111 -185 -153 -239 -221 -37 -45 -70 -87 -75 -93 -6 -7 -7 -15 -4 -18 4 -3 2 -6 -4 -6 -6 0 -13 -9 -16 -20 -4 -16 -14 -20 -52 -20 -38 0 -52 -5 -76 -29 -24 -25 -29 -37 -29 -80 0 -42 5 -55 29 -80 16 -16 32 -27 37 -23 4 4 4 -2 -1 -13 -4 -11 -10 -90 -13 -175 -3 -119 0 -176 13 -245 9 -49 20 -94 25 -100 4 -5 14 -29 21 -52 6 -24 15 -43 19 -43 4 0 13 -18 20 -40 7 -22 18 -40 23 -40 6 0 8 -3 4 -6 -3 -3 -2 -11 4 -18 5 -6 38 -48 75 -93 36 -45 102 -111 147 -147 45 -37 89 -72 97 -79 8 -6 15 -10 15 -8 0 4 79 -32 85 -40 3 -3 23 -12 45 -19 22 -7 45 -16 50 -20 24 -19 185 -40 305 -40 121 0 282 21 305 40 6 4 29 14 53 21 23 6 42 15 42 19 0 4 18 13 40 20 22 7 40 18 40 23 0 6 3 8 6 4 3 -3 11 -2 18 4 6 5 48 38 93 75 45 36 111 102 147 147 37 45 72 89 79 97 6 8 11 16 10 17 -4 4 30 77 38 83 3 3 12 23 19 45 7 22 16 45 20 50 19 24 40 185 40 305 0 120 -21 281 -40 305 -4 6 -13 28 -20 50 -7 22 -16 42 -19 45 -7 6 -44 83 -42 88 1 1 -3 8 -9 15 -5 6 -39 49 -76 94 -36 45 -102 111 -147 147 -45 37 -87 70 -93 75 -7 6 -15 7 -18 4 -3 -4 -6 -2 -6 4 0 5 -18 16 -40 23 -22 7 -40 16 -40 20 0 4 -19 13 -42 19 -24 7 -47 17 -53 21 -44 36 -381 52 -519 24z"/>
 <path d="M2032 1988 c-7 -7 -12 -26 -12 -43 0 -17 5 -36 12 -43 7 -7 26 -12 43 -12 17 0 36 5 43 12 7 7 12 26 12 43 0 17 -5 36 -12 43 -7 7 -26 12 -43 12 -17 0 -36 -5 -43 -12z"/>
 <path d="M292 788 c-16 -16 -15 -69 2 -90 17 -23 58 -23 79 0 21 23 22 66 1 86 -18 19 -65 21 -82 4z"/>
 <path d="M2182 658 c-7 -7 -12 -26 -12 -43 0 -17 5 -36 12 -43 7 -7 26 -12 43 -12 39 0 55 16 55 55 0 17 -5 36 -12 43 -16 16 -70 16 -86 0z"/>
 <path d="M2064 478 c-29 -13 -44 -49 -44 -102 0 -64 35 -96 105 -96 43 0 57 5 79 26 45 45 32 149 -21 173 -29 14 -91 13 -119 -1z"/>
 <path d="M1940 330 c0 -27 3 -30 30 -30 27 0 30 3 30 30 0 27 -3 30 -30 30 -27 0 -30 -3 -30 -30z"/>
 </g>
<g id="layer102" fill="#492c26" stroke="none">
 <path d="M596 2267 c-12 -9 -17 -23 -14 -47 4 -41 40 -60 86 -44 21 7 28 17 30 44 4 39 -16 60 -58 60 -14 0 -34 -6 -44 -13z"/>
 <path d="M1066 2214 c-38 -7 -83 -20 -100 -28 -17 -7 -42 -17 -56 -21 -14 -4 -27 -10 -30 -14 -5 -6 -79 -42 -90 -44 -3 0 -9 -4 -15 -9 -140 -111 -185 -153 -239 -221 -37 -45 -70 -87 -75 -93 -6 -7 -7 -15 -4 -18 4 -3 2 -6 -4 -6 -6 0 -13 -9 -16 -20 -4 -16 -14 -20 -52 -20 -38 0 -52 -5 -76 -29 -24 -25 -29 -37 -29 -80 0 -42 5 -55 29 -80 16 -16 32 -27 37 -23 4 4 4 -2 -1 -13 -4 -11 -10 -90 -13 -175 -3 -119 0 -176 13 -245 9 -49 20 -94 25 -100 4 -5 14 -29 21 -52 6 -24 15 -43 19 -43 4 0 13 -18 20 -40 7 -22 18 -40 23 -40 6 0 8 -3 4 -6 -3 -3 -2 -11 4 -18 5 -6 38 -48 75 -93 36 -45 102 -111 147 -147 45 -37 89 -72 97 -79 8 -6 15 -10 15 -8 0 4 79 -32 85 -40 3 -3 23 -12 45 -19 22 -7 45 -16 50 -20 24 -19 185 -40 305 -40 121 0 282 21 305 40 6 4 29 14 53 21 23 6 42 15 42 19 0 4 18 13 40 20 22 7 40 18 40 23 0 6 3 8 6 4 3 -3 11 -2 18 4 6 5 48 38 93 75 45 36 111 102 147 147 37 45 72 89 79 97 6 8 11 16 10 17 -4 4 30 77 38 83 3 3 12 23 19 45 7 22 16 45 20 50 19 24 40 185 40 305 0 120 -21 281 -40 305 -4 6 -13 28 -20 50 -7 22 -16 42 -19 45 -7 6 -44 83 -42 88 1 1 -3 8 -9 15 -5 6 -39 49 -76 94 -36 45 -102 111 -147 147 -45 37 -87 70 -93 75 -7 6 -15 7 -18 4 -3 -4 -6 -2 -6 4 0 5 -18 16 -40 23 -22 7 -40 16 -40 20 0 4 -19 13 -42 19 -24 7 -47 17 -53 21 -44 36 -381 52 -519 24z m627 -361 c3 -5 -193 -8 -436 -8 -243 0 -428 3 -412 6 43 9 843 10 848 2z m-220 -100 c-106 -2 -280 -2 -385 0 -106 1 -20 2 192 2 212 0 298 -1 193 -2z m-758 -475 c0 -254 -3 -449 -6 -432 -14 63 -9 894 5 894 0 0 1 -208 1 -462z m1145 2 c0 -225 -3 -411 -7 -413 -5 -3 -8 183 -8 413 0 230 3 416 8 413 4 -2 7 -188 7 -413z m-1053 -197 c-1 -109 -2 -22 -2 192 0 215 1 304 2 198 2 -105 2 -281 0 -390z m950 279 c-1 -53 -3 -7 -3 103 0 110 2 154 3 97 2 -57 2 -147 0 -200z m-510 31 c-2 -37 -3 -9 -3 62 0 72 1 102 3 68 2 -34 2 -93 0 -130z m58 157 c11 -20 15 -59 15 -135 l0 -105 -42 2 -43 1 38 4 37 4 0 100 c0 70 -5 109 -15 129 -9 17 -13 30 -11 30 3 0 12 -13 21 -30z m-52 -487 c-40 -2 -106 -2 -145 0 -40 1 -8 3 72 3 80 0 112 -2 73 -3z m165 -50 c-76 -2 -200 -2 -275 0 -76 1 -14 3 137 3 151 0 213 -2 138 -3z m-15 -210 c-95 -2 -251 -2 -345 0 -95 1 -18 3 172 3 190 0 267 -2 173 -3z m311 -94 c-16 -4 -211 -7 -434 -7 -223 0 -418 3 -434 7 -17 3 179 6 434 6 255 0 451 -3 434 -6z"/>
 <path d="M2032 1988 c-7 -7 -12 -26 -12 -43 0 -17 5 -36 12 -43 7 -7 26 -12 43 -12 17 0 36 5 43 12 7 7 12 26 12 43 0 17 -5 36 -12 43 -7 7 -26 12 -43 12 -17 0 -36 -5 -43 -12z"/>
 <path d="M292 788 c-16 -16 -15 -69 2 -90 17 -23 58 -23 79 0 21 23 22 66 1 86 -18 19 -65 21 -82 4z"/>
 <path d="M2182 658 c-7 -7 -12 -26 -12 -43 0 -17 5 -36 12 -43 7 -7 26 -12 43 -12 39 0 55 16 55 55 0 17 -5 36 -12 43 -16 16 -70 16 -86 0z"/>
 <path d="M2064 478 c-29 -13 -44 -49 -44 -102 0 -64 35 -96 105 -96 43 0 57 5 79 26 45 45 32 149 -21 173 -29 14 -91 13 -119 -1z"/>
 <path d="M1940 330 c0 -27 3 -30 30 -30 27 0 30 3 30 30 0 27 -3 30 -30 30 -27 0 -30 -3 -30 -30z"/>
 </g>
<g id="layer103" fill="#543e48" stroke="none">
 <path d="M596 2267 c-12 -9 -17 -23 -14 -47 4 -41 40 -60 86 -44 21 7 28 17 30 44 4 39 -16 60 -58 60 -14 0 -34 -6 -44 -13z"/>
 <path d="M1066 2214 c-38 -7 -83 -20 -100 -28 -17 -7 -42 -17 -56 -21 -14 -4 -27 -10 -30 -14 -5 -6 -79 -42 -90 -44 -3 0 -9 -4 -15 -9 -140 -111 -185 -153 -239 -221 -37 -45 -70 -87 -75 -93 -6 -7 -7 -15 -4 -18 4 -3 2 -6 -4 -6 -6 0 -13 -9 -16 -20 -4 -16 -14 -20 -52 -20 -38 0 -52 -5 -76 -29 -24 -25 -29 -37 -29 -80 0 -42 5 -55 29 -80 16 -16 32 -27 37 -23 4 4 4 -2 -1 -13 -4 -11 -10 -90 -13 -175 -3 -119 0 -176 13 -245 9 -49 20 -94 25 -100 4 -5 14 -29 21 -52 6 -24 15 -43 19 -43 4 0 13 -18 20 -40 7 -22 18 -40 23 -40 6 0 8 -3 4 -6 -3 -3 -2 -11 4 -18 5 -6 38 -48 75 -93 36 -45 102 -111 147 -147 45 -37 89 -72 97 -79 8 -6 15 -10 15 -8 0 4 79 -32 85 -40 3 -3 23 -12 45 -19 22 -7 45 -16 50 -20 24 -19 185 -40 305 -40 121 0 282 21 305 40 6 4 29 14 53 21 23 6 42 15 42 19 0 4 18 13 40 20 22 7 40 18 40 23 0 6 3 8 6 4 3 -3 11 -2 18 4 6 5 48 38 93 75 45 36 111 102 147 147 37 45 72 89 79 97 6 8 11 16 10 17 -4 4 30 77 38 83 3 3 12 23 19 45 7 22 16 45 20 50 19 24 40 185 40 305 0 120 -21 281 -40 305 -4 6 -13 28 -20 50 -7 22 -16 42 -19 45 -7 6 -44 83 -42 88 1 1 -3 8 -9 15 -5 6 -39 49 -76 94 -36 45 -102 111 -147 147 -45 37 -87 70 -93 75 -7 6 -15 7 -18 4 -3 -4 -6 -2 -6 4 0 5 -18 16 -40 23 -22 7 -40 16 -40 20 0 4 -19 13 -42 19 -24 7 -47 17 -53 21 -44 36 -381 52 -519 24z m659 -365 c51 -14 110 -73 124 -124 7 -26 11 -182 11 -455 0 -381 -2 -418 -19 -455 -22 -50 -69 -91 -119 -105 -23 -6 -197 -10 -450 -10 -350 0 -418 2 -450 15 -49 21 -81 52 -103 100 -17 37 -19 73 -19 455 0 264 4 429 11 453 14 51 64 104 114 122 51 18 836 22 900 4z"/>
 <path d="M825 1823 c-44 -23 -65 -44 -86 -85 -18 -35 -19 -65 -19 -458 0 -393 1 -423 19 -458 22 -42 43 -63 88 -86 28 -14 85 -16 453 -16 393 0 423 1 458 19 42 22 63 43 86 88 14 28 16 85 16 453 0 368 -2 425 -16 453 -23 45 -44 66 -86 88 -35 18 -64 19 -460 19 -366 -1 -427 -3 -453 -17z m897 -101 l33 -32 0 -208 1 -207 -3 196 c-3 159 -6 199 -18 209 -8 7 -15 19 -15 26 0 8 -6 14 -14 14 -7 0 -19 7 -26 15 -11 13 -67 15 -397 15 -338 0 -388 -2 -413 -16 -60 -36 -60 -35 -60 -454 0 -334 2 -385 16 -409 33 -56 31 -56 409 -61 l350 -6 -357 1 -358 0 -32 33 -33 32 0 409 0 409 25 27 c14 15 34 31 45 36 11 4 199 7 417 6 l398 -2 32 -33z m-417 -174 c4 -10 11 -18 16 -18 5 0 9 -31 9 -70 0 -63 9 -86 25 -61 3 6 22 5 46 -2 75 -22 100 -100 49 -155 -28 -30 -22 -44 55 -127 36 -38 65 -75 65 -82 0 -28 -44 -33 -294 -33 -140 0 -261 3 -270 6 -23 9 -20 43 7 68 28 28 97 104 97 108 0 2 27 32 60 66 l60 63 0 68 c0 37 3 109 7 160 l6 92 28 -33 c16 -18 31 -41 34 -50z"/>
 <path d="M1250 1460 l0 -130 30 0 30 0 0 97 c0 84 -3 101 -22 130 -13 18 -26 33 -30 33 -5 0 -8 -58 -8 -130z"/>
 <path d="M1343 1383 c-27 -10 -14 -69 25 -113 44 -49 62 -49 87 0 15 29 15 34 0 66 -22 47 -66 66 -112 47z"/>
 <path d="M1141 1198 c-56 -62 -101 -116 -101 -120 0 -4 66 -9 148 -11 l147 -3 -155 -2 c-149 -2 -180 -8 -180 -34 0 -4 124 -8 276 -8 256 0 275 1 272 17 -2 10 -16 21 -33 24 -17 4 -22 7 -12 8 23 1 22 6 -12 44 -15 17 -61 69 -101 115 -66 76 -75 82 -110 82 -36 0 -44 -6 -139 -112z"/>
 <path d="M2032 1988 c-7 -7 -12 -26 -12 -43 0 -17 5 -36 12 -43 7 -7 26 -12 43 -12 17 0 36 5 43 12 7 7 12 26 12 43 0 17 -5 36 -12 43 -7 7 -26 12 -43 12 -17 0 -36 -5 -43 -12z"/>
 <path d="M292 788 c-16 -16 -15 -69 2 -90 17 -23 58 -23 79 0 21 23 22 66 1 86 -18 19 -65 21 -82 4z"/>
 <path d="M2182 658 c-7 -7 -12 -26 -12 -43 0 -17 5 -36 12 -43 7 -7 26 -12 43 -12 39 0 55 16 55 55 0 17 -5 36 -12 43 -16 16 -70 16 -86 0z"/>
 <path d="M2064 478 c-29 -13 -44 -49 -44 -102 0 -64 35 -96 105 -96 43 0 57 5 79 26 45 45 32 149 -21 173 -29 14 -91 13 -119 -1z"/>
 <path d="M1940 330 c0 -27 3 -30 30 -30 27 0 30 3 30 30 0 27 -3 30 -30 30 -27 0 -30 -3 -30 -30z"/>
 </g>
<g id="layer104" fill="#6d5c5b" stroke="none">
 <path d="M596 2267 c-12 -9 -17 -23 -14 -47 4 -41 40 -60 86 -44 21 7 28 17 30 44 4 39 -16 60 -58 60 -14 0 -34 -6 -44 -13z"/>
 <path d="M1066 2214 c-38 -7 -83 -20 -100 -28 -17 -7 -42 -17 -56 -21 -14 -4 -27 -10 -30 -14 -5 -6 -79 -42 -90 -44 -3 0 -9 -4 -15 -9 -140 -111 -185 -153 -239 -221 -37 -45 -70 -87 -75 -93 -6 -7 -7 -15 -4 -18 4 -3 2 -6 -4 -6 -6 0 -13 -9 -16 -20 -4 -16 -14 -20 -52 -20 -38 0 -52 -5 -76 -29 -24 -25 -29 -37 -29 -80 0 -42 5 -55 29 -80 16 -16 32 -27 37 -23 4 4 4 -2 -1 -13 -4 -11 -10 -90 -13 -175 -3 -119 0 -176 13 -245 9 -49 20 -94 25 -100 4 -5 14 -29 21 -52 6 -24 15 -43 19 -43 4 0 13 -18 20 -40 7 -22 18 -40 23 -40 6 0 8 -3 4 -6 -3 -3 -2 -11 4 -18 5 -6 38 -48 75 -93 36 -45 102 -111 147 -147 45 -37 89 -72 97 -79 8 -6 15 -10 15 -8 0 4 79 -32 85 -40 3 -3 23 -12 45 -19 22 -7 45 -16 50 -20 24 -19 185 -40 305 -40 121 0 282 21 305 40 6 4 29 14 53 21 23 6 42 15 42 19 0 4 18 13 40 20 22 7 40 18 40 23 0 6 3 8 6 4 3 -3 11 -2 18 4 6 5 48 38 93 75 45 36 111 102 147 147 37 45 72 89 79 97 6 8 11 16 10 17 -4 4 30 77 38 83 3 3 12 23 19 45 7 22 16 45 20 50 19 24 40 185 40 305 0 120 -21 281 -40 305 -4 6 -13 28 -20 50 -7 22 -16 42 -19 45 -7 6 -44 83 -42 88 1 1 -3 8 -9 15 -5 6 -39 49 -76 94 -36 45 -102 111 -147 147 -45 37 -87 70 -93 75 -7 6 -15 7 -18 4 -3 -4 -6 -2 -6 4 0 5 -18 16 -40 23 -22 7 -40 16 -40 20 0 4 -19 13 -42 19 -24 7 -47 17 -53 21 -44 36 -381 52 -519 24z m736 -412 l53 -52 0 -470 0 -469 -45 -46 c-25 -25 -60 -50 -80 -55 -46 -13 -854 -13 -900 0 -45 12 -107 75 -120 121 -13 45 -13 852 0 899 11 42 84 116 120 123 14 3 226 4 472 3 l448 -1 52 -53z"/>
 <path d="M860 1829 c-65 -13 -116 -67 -130 -138 -13 -70 -13 -752 0 -822 14 -75 64 -125 139 -139 70 -13 752 -13 822 0 75 14 125 64 139 139 13 70 13 752 0 822 -14 75 -64 125 -139 139 -65 12 -767 12 -831 -1z m840 -84 c55 -29 60 -52 58 -282 l-2 -208 -6 200 c-6 226 -12 250 -70 278 -33 15 -75 17 -400 17 -410 0 -420 -2 -453 -71 -15 -32 -17 -76 -17 -399 0 -325 2 -367 18 -400 29 -63 39 -64 417 -70 l340 -5 -348 -3 c-295 -2 -352 0 -377 13 -59 31 -60 36 -60 465 0 427 1 434 58 464 41 23 799 23 842 1z m-410 -170 c37 -50 40 -59 40 -120 0 -59 9 -80 24 -56 8 12 76 -6 98 -26 9 -8 20 -28 23 -44 8 -35 -10 -95 -30 -103 -24 -9 -18 -26 28 -71 59 -61 97 -107 97 -121 0 -31 -28 -34 -301 -32 l-274 3 -3 26 c-3 26 25 61 143 179 25 25 45 50 45 56 0 7 11 19 25 28 25 16 25 17 25 176 0 97 4 160 10 160 5 0 28 -25 50 -55z"/>
 <path d="M1250 1455 l0 -125 30 0 30 0 0 95 c0 83 -3 100 -22 125 -12 17 -25 30 -30 30 -4 0 -8 -56 -8 -125z"/>
 <path d="M1342 1378 c-17 -17 -15 -67 4 -75 8 -3 19 -16 24 -29 5 -12 18 -28 29 -34 17 -8 25 -6 42 11 28 28 21 95 -11 121 -25 21 -70 24 -88 6z"/>
 <path d="M1189 1248 c-29 -35 -75 -85 -100 -113 -26 -27 -45 -53 -43 -57 3 -4 68 -8 145 -8 86 0 139 -4 139 -10 0 -6 -60 -10 -160 -10 -136 0 -160 -2 -160 -15 0 -13 37 -15 270 -15 233 0 270 2 270 15 0 10 -10 15 -30 15 -30 0 -41 15 -18 22 15 5 5 19 -102 141 -77 87 -88 96 -121 97 -32 0 -42 -7 -90 -62z m266 -188 c-3 -5 -26 -10 -51 -10 -24 0 -44 5 -44 10 0 6 23 10 51 10 31 0 48 -4 44 -10z"/>
 <path d="M2032 1988 c-7 -7 -12 -26 -12 -43 0 -17 5 -36 12 -43 7 -7 26 -12 43 -12 17 0 36 5 43 12 7 7 12 26 12 43 0 17 -5 36 -12 43 -7 7 -26 12 -43 12 -17 0 -36 -5 -43 -12z"/>
 <path d="M292 788 c-16 -16 -15 -69 2 -90 17 -23 58 -23 79 0 21 23 22 66 1 86 -18 19 -65 21 -82 4z"/>
 <path d="M2182 658 c-7 -7 -12 -26 -12 -43 0 -17 5 -36 12 -43 7 -7 26 -12 43 -12 39 0 55 16 55 55 0 17 -5 36 -12 43 -16 16 -70 16 -86 0z"/>
 <path d="M2064 478 c-29 -13 -44 -49 -44 -102 0 -64 35 -96 105 -96 43 0 57 5 79 26 45 45 32 149 -21 173 -29 14 -91 13 -119 -1z"/>
 <path d="M1940 330 c0 -27 3 -30 30 -30 27 0 30 3 30 30 0 27 -3 30 -30 30 -27 0 -30 -3 -30 -30z"/>
 </g>
<g id="layer105" fill="#6c6691" stroke="none">
 <path d="M596 2267 c-12 -9 -17 -23 -14 -47 4 -41 40 -60 86 -44 21 7 28 17 30 44 4 39 -16 60 -58 60 -14 0 -34 -6 -44 -13z"/>
 <path d="M1066 2214 c-38 -7 -83 -20 -100 -28 -17 -7 -42 -17 -56 -21 -14 -4 -27 -10 -30 -14 -5 -6 -79 -42 -90 -44 -3 0 -9 -4 -15 -9 -140 -111 -185 -153 -239 -221 -37 -45 -70 -87 -75 -93 -6 -7 -7 -15 -4 -18 4 -3 2 -6 -4 -6 -6 0 -13 -9 -16 -20 -4 -16 -14 -20 -52 -20 -38 0 -52 -5 -76 -29 -24 -25 -29 -37 -29 -80 0 -42 5 -55 29 -80 16 -16 32 -27 37 -23 4 4 4 -2 -1 -13 -4 -11 -10 -90 -13 -175 -3 -119 0 -176 13 -245 9 -49 20 -94 25 -100 4 -5 14 -29 21 -52 6 -24 15 -43 19 -43 4 0 13 -18 20 -40 7 -22 18 -40 23 -40 6 0 8 -3 4 -6 -3 -3 -2 -11 4 -18 5 -6 38 -48 75 -93 36 -45 102 -111 147 -147 45 -37 89 -72 97 -79 8 -6 15 -10 15 -8 0 4 79 -32 85 -40 3 -3 23 -12 45 -19 22 -7 45 -16 50 -20 24 -19 185 -40 305 -40 121 0 282 21 305 40 6 4 29 14 53 21 23 6 42 15 42 19 0 4 18 13 40 20 22 7 40 18 40 23 0 6 3 8 6 4 3 -3 11 -2 18 4 6 5 48 38 93 75 45 36 111 102 147 147 37 45 72 89 79 97 6 8 11 16 10 17 -4 4 30 77 38 83 3 3 12 23 19 45 7 22 16 45 20 50 19 24 40 185 40 305 0 120 -21 281 -40 305 -4 6 -13 28 -20 50 -7 22 -16 42 -19 45 -7 6 -44 83 -42 88 1 1 -3 8 -9 15 -5 6 -39 49 -76 94 -36 45 -102 111 -147 147 -45 37 -87 70 -93 75 -7 6 -15 7 -18 4 -3 -4 -6 -2 -6 4 0 5 -18 16 -40 23 -22 7 -40 16 -40 20 0 4 -19 13 -42 19 -24 7 -47 17 -53 21 -44 36 -381 52 -519 24z m679 -363 c49 -23 89 -64 109 -113 24 -56 24 -860 0 -916 -20 -49 -60 -89 -111 -113 -39 -18 -69 -19 -467 -19 -406 0 -427 1 -464 20 -43 22 -78 59 -105 107 -15 28 -17 72 -17 458 0 399 1 429 19 468 11 23 32 54 48 69 60 57 61 57 523 57 393 1 428 -1 465 -18z"/>
 <path d="M830 1819 c-14 -6 -36 -20 -48 -32 -52 -49 -52 -45 -52 -510 l0 -434 23 -34 c12 -18 38 -44 56 -56 l34 -23 437 0 c437 0 437 0 470 23 18 12 43 35 54 50 21 28 21 38 21 477 0 437 -1 449 -21 476 -11 15 -33 37 -48 48 -27 20 -40 21 -464 23 -277 1 -446 -2 -462 -8z m897 -92 l28 -27 3 -220 c2 -150 0 -220 -7 -220 -8 0 -11 68 -11 206 l0 206 -34 34 -34 34 -392 0 -392 0 -34 -34 -34 -34 0 -392 0 -392 34 -34 34 -34 346 0 c232 0 346 -3 346 -10 0 -7 -116 -10 -360 -8 l-360 3 -27 28 -28 27 0 419 c0 405 1 420 20 441 11 12 29 26 40 31 11 4 203 7 427 6 l408 -2 27 -28z m-452 -124 c47 -59 55 -81 55 -149 0 -57 9 -79 24 -56 3 5 20 7 38 6 84 -6 118 -129 50 -180 -13 -10 -13 -14 4 -31 43 -45 110 -126 118 -143 5 -11 6 -26 3 -34 -6 -14 -42 -16 -285 -16 -330 0 -339 3 -267 85 41 46 146 164 188 209 l27 30 0 158 c0 87 3 158 8 158 4 0 21 -17 37 -37z m485 -454 c0 -37 -4 -58 -10 -54 -5 3 -10 31 -10 61 0 30 5 54 10 54 6 0 10 -27 10 -61z"/>
 <path d="M1250 1455 l0 -125 30 0 30 0 0 92 c0 79 -3 96 -22 125 -13 18 -26 33 -30 33 -5 0 -8 -56 -8 -125z"/>
 <path d="M1358 1377 c-39 -15 -35 -43 11 -96 30 -34 43 -42 59 -37 47 15 40 105 -10 130 -17 9 -32 16 -32 15 -1 -1 -13 -6 -28 -12z"/>
 <path d="M1151 1202 c-52 -59 -96 -113 -99 -119 -3 -10 29 -13 137 -13 87 0 141 -4 141 -10 0 -6 -60 -10 -160 -10 -136 0 -160 -2 -160 -15 0 -13 37 -15 271 -15 212 0 270 3 267 13 -3 6 -17 13 -31 15 -28 3 -36 17 -14 25 7 2 -18 38 -63 88 -41 47 -87 99 -102 117 -21 25 -34 32 -60 31 -29 0 -44 -13 -127 -107z m309 -142 c0 -5 -22 -10 -50 -10 -27 0 -50 5 -50 10 0 6 23 10 50 10 28 0 50 -4 50 -10z"/>
 <path d="M2032 1988 c-7 -7 -12 -26 -12 -43 0 -17 5 -36 12 -43 7 -7 26 -12 43 -12 17 0 36 5 43 12 7 7 12 26 12 43 0 17 -5 36 -12 43 -7 7 -26 12 -43 12 -17 0 -36 -5 -43 -12z"/>
 <path d="M292 788 c-16 -16 -15 -69 2 -90 17 -23 58 -23 79 0 21 23 22 66 1 86 -18 19 -65 21 -82 4z"/>
 <path d="M2182 658 c-7 -7 -12 -26 -12 -43 0 -17 5 -36 12 -43 7 -7 26 -12 43 -12 39 0 55 16 55 55 0 17 -5 36 -12 43 -16 16 -70 16 -86 0z"/>
 <path d="M2064 478 c-29 -13 -44 -49 -44 -102 0 -64 35 -96 105 -96 43 0 57 5 79 26 45 45 32 149 -21 173 -29 14 -91 13 -119 -1z"/>
 <path d="M1940 330 c0 -27 3 -30 30 -30 27 0 30 3 30 30 0 27 -3 30 -30 30 -27 0 -30 -3 -30 -30z"/>
 </g>
<g id="layer106" fill="#d74b58" stroke="none">
 <path d="M596 2267 c-12 -9 -17 -23 -14 -47 4 -41 40 -60 86 -44 21 7 28 17 30 44 4 39 -16 60 -58 60 -14 0 -34 -6 -44 -13z"/>
 <path d="M1066 2214 c-38 -7 -83 -20 -100 -28 -17 -7 -42 -17 -56 -21 -14 -4 -27 -10 -30 -14 -5 -6 -79 -42 -90 -44 -3 0 -9 -4 -15 -9 -140 -111 -185 -153 -239 -221 -37 -45 -70 -87 -75 -93 -6 -7 -7 -15 -4 -18 4 -3 2 -6 -4 -6 -6 0 -13 -9 -16 -20 -4 -16 -14 -20 -52 -20 -38 0 -52 -5 -76 -29 -24 -25 -29 -37 -29 -80 0 -42 5 -55 29 -80 16 -16 32 -27 37 -23 4 4 4 -2 -1 -13 -4 -11 -10 -90 -13 -175 -3 -119 0 -176 13 -245 9 -49 20 -94 25 -100 4 -5 14 -29 21 -52 6 -24 15 -43 19 -43 4 0 13 -18 20 -40 7 -22 18 -40 23 -40 6 0 8 -3 4 -6 -3 -3 -2 -11 4 -18 5 -6 38 -48 75 -93 36 -45 102 -111 147 -147 45 -37 89 -72 97 -79 8 -6 15 -10 15 -8 0 4 79 -32 85 -40 3 -3 23 -12 45 -19 22 -7 45 -16 50 -20 24 -19 185 -40 305 -40 121 0 282 21 305 40 6 4 29 14 53 21 23 6 42 15 42 19 0 4 18 13 40 20 22 7 40 18 40 23 0 6 3 8 6 4 3 -3 11 -2 18 4 6 5 48 38 93 75 45 36 111 102 147 147 37 45 72 89 79 97 6 8 11 16 10 17 -4 4 30 77 38 83 3 3 12 23 19 45 7 22 16 45 20 50 19 24 40 185 40 305 0 120 -21 281 -40 305 -4 6 -13 28 -20 50 -7 22 -16 42 -19 45 -7 6 -44 83 -42 88 1 1 -3 8 -9 15 -5 6 -39 49 -76 94 -36 45 -102 111 -147 147 -45 37 -87 70 -93 75 -7 6 -15 7 -18 4 -3 -4 -6 -2 -6 4 0 5 -18 16 -40 23 -22 7 -40 16 -40 20 0 4 -19 13 -42 19 -24 7 -47 17 -53 21 -44 36 -381 52 -519 24z m679 -363 c49 -23 89 -64 109 -113 24 -56 24 -860 0 -916 -20 -49 -60 -89 -111 -113 -39 -18 -69 -19 -467 -19 -406 0 -427 1 -464 20 -43 22 -78 59 -105 107 -15 28 -17 72 -17 458 0 399 1 429 19 468 11 23 32 54 48 69 60 57 61 57 523 57 393 1 428 -1 465 -18z"/>
 <path d="M821 1807 c-30 -16 -52 -38 -68 -68 l-23 -44 0 -415 0 -415 23 -44 c16 -30 38 -52 68 -68 l44 -23 415 0 415 0 44 23 c30 16 52 38 68 68 l23 44 0 415 0 415 -23 44 c-16 30 -38 52 -68 68 l-44 23 -415 0 -415 0 -44 -23z m886 -57 c58 -35 63 -56 63 -285 0 -176 -2 -205 -15 -205 -13 0 -15 30 -15 206 l0 206 -34 34 -34 34 -392 0 -392 0 -34 -34 -34 -34 0 -391 0 -391 29 -32 29 -33 353 -5 c269 -4 353 -8 357 -17 3 -10 -71 -13 -348 -13 -388 0 -392 1 -430 63 -19 30 -20 53 -20 425 0 434 0 434 63 472 30 19 53 20 427 20 374 0 397 -1 427 -20z m-417 -163 c37 -50 40 -58 40 -119 l0 -66 40 2 c57 3 97 -23 106 -68 8 -46 -1 -80 -27 -105 -20 -19 -20 -20 -2 -39 43 -45 109 -125 117 -142 5 -11 6 -26 3 -34 -6 -14 -42 -16 -285 -16 -330 0 -339 3 -267 85 41 46 146 164 188 209 l27 30 0 158 c0 95 4 158 10 158 5 0 27 -24 50 -53z m480 -437 c0 -47 -3 -60 -15 -60 -12 0 -15 13 -15 60 0 47 3 60 15 60 12 0 15 -13 15 -60z m0 -150 c0 -29 -4 -40 -15 -40 -10 0 -15 10 -15 33 0 19 3 37 7 40 15 16 23 5 23 -33z"/>
 <path d="M1260 1450 c0 -113 1 -120 20 -120 19 0 20 7 20 90 0 62 -5 100 -15 120 -9 17 -18 30 -20 30 -3 0 -5 -54 -5 -120z"/>
 <path d="M1348 1373 c-28 -7 -21 -41 19 -89 42 -50 55 -54 77 -22 45 64 -15 132 -96 111z"/>
 <path d="M1147 1189 l-98 -109 140 0 c119 0 141 -2 141 -15 0 -13 -24 -15 -154 -15 -93 0 -157 -4 -161 -10 -4 -7 85 -10 260 -10 175 0 264 3 260 10 -3 6 -17 10 -31 10 -25 0 -31 9 -14 26 6 6 -22 46 -83 117 -85 98 -95 106 -127 106 -32 0 -44 -10 -133 -110z m313 -124 c0 -11 -12 -15 -49 -15 -47 0 -68 9 -54 24 3 3 28 6 55 6 36 0 48 -4 48 -15z"/>
 <path d="M2032 1988 c-7 -7 -12 -26 -12 -43 0 -17 5 -36 12 -43 7 -7 26 -12 43 -12 17 0 36 5 43 12 7 7 12 26 12 43 0 17 -5 36 -12 43 -7 7 -26 12 -43 12 -17 0 -36 -5 -43 -12z"/>
 <path d="M292 788 c-16 -16 -15 -69 2 -90 17 -23 58 -23 79 0 21 23 22 66 1 86 -18 19 -65 21 -82 4z"/>
 <path d="M2182 658 c-7 -7 -12 -26 -12 -43 0 -17 5 -36 12 -43 7 -7 26 -12 43 -12 39 0 55 16 55 55 0 17 -5 36 -12 43 -16 16 -70 16 -86 0z"/>
 <path d="M2064 478 c-29 -13 -44 -49 -44 -102 0 -64 35 -96 105 -96 43 0 57 5 79 26 45 45 32 149 -21 173 -29 14 -91 13 -119 -1z"/>
 <path d="M1940 330 c0 -27 3 -30 30 -30 27 0 30 3 30 30 0 27 -3 30 -30 30 -27 0 -30 -3 -30 -30z"/>
 </g>
<g id="layer107" fill="#878ac8" stroke="none">
 <path d="M1066 2214 c-38 -7 -83 -20 -100 -28 -17 -7 -42 -17 -56 -21 -14 -4 -27 -10 -30 -14 -5 -6 -79 -42 -90 -44 -3 0 -9 -4 -15 -9 -140 -111 -185 -153 -239 -221 -37 -45 -70 -87 -75 -93 -6 -7 -7 -15 -4 -18 4 -3 2 -6 -4 -6 -6 0 -13 -9 -16 -20 -4 -16 -14 -20 -52 -20 -38 0 -52 -5 -76 -29 -24 -25 -29 -37 -29 -80 0 -42 5 -55 29 -80 16 -16 32 -27 37 -23 4 4 4 -2 -1 -13 -4 -11 -10 -90 -13 -175 -3 -119 0 -176 13 -245 9 -49 20 -94 25 -100 4 -5 14 -29 21 -52 6 -24 15 -43 19 -43 4 0 13 -18 20 -40 7 -22 18 -40 23 -40 6 0 8 -3 4 -6 -3 -3 -2 -11 4 -18 5 -6 38 -48 75 -93 36 -45 102 -111 147 -147 45 -37 89 -72 97 -79 8 -6 15 -10 15 -8 0 4 79 -32 85 -40 3 -3 23 -12 45 -19 22 -7 45 -16 50 -20 24 -19 185 -40 305 -40 121 0 282 21 305 40 6 4 29 14 53 21 23 6 42 15 42 19 0 4 18 13 40 20 22 7 40 18 40 23 0 6 3 8 6 4 3 -3 11 -2 18 4 6 5 48 38 93 75 45 36 111 102 147 147 37 45 72 89 79 97 6 8 11 16 10 17 -4 4 30 77 38 83 3 3 12 23 19 45 7 22 16 45 20 50 19 24 40 185 40 305 0 120 -21 281 -40 305 -4 6 -13 28 -20 50 -7 22 -16 42 -19 45 -7 6 -44 83 -42 88 1 1 -3 8 -9 15 -5 6 -39 49 -76 94 -36 45 -102 111 -147 147 -45 37 -87 70 -93 75 -7 6 -15 7 -18 4 -3 -4 -6 -2 -6 4 0 5 -18 16 -40 23 -22 7 -40 16 -40 20 0 4 -19 13 -42 19 -24 7 -47 17 -53 21 -44 36 -381 52 -519 24z m679 -363 c49 -23 89 -64 109 -113 24 -56 24 -860 0 -916 -20 -49 -60 -89 -111 -113 -39 -18 -69 -19 -467 -19 -406 0 -427 1 -464 20 -43 22 -78 59 -105 107 -15 28 -17 72 -17 458 0 399 1 429 19 468 11 23 32 54 48 69 60 57 61 57 523 57 393 1 428 -1 465 -18z"/>
 <path d="M821 1807 c-30 -16 -52 -38 -68 -68 l-23 -44 0 -415 0 -415 23 -44 c16 -30 38 -52 68 -68 l44 -23 415 0 415 0 44 23 c30 16 52 38 68 68 l23 44 0 415 0 415 -23 44 c-16 30 -38 52 -68 68 l-44 23 -415 0 -415 0 -44 -23z m886 -57 c58 -35 63 -56 63 -285 0 -176 -2 -205 -15 -205 -13 0 -15 30 -15 206 l0 206 -34 34 -34 34 -392 0 -392 0 -34 -34 -34 -34 0 -391 0 -391 29 -32 29 -33 353 -5 c269 -4 353 -8 357 -17 3 -10 -71 -13 -348 -13 -388 0 -392 1 -430 63 -19 30 -20 53 -20 425 0 434 0 434 63 472 30 19 53 20 427 20 374 0 397 -1 427 -20z m-417 -163 c37 -50 40 -58 40 -119 l0 -66 40 2 c57 3 97 -23 106 -68 8 -46 -1 -80 -27 -105 -20 -19 -20 -20 -2 -39 43 -45 109 -125 117 -142 5 -11 6 -26 3 -34 -6 -14 -42 -16 -285 -16 -330 0 -339 3 -267 85 41 46 146 164 188 209 l27 30 0 158 c0 95 4 158 10 158 5 0 27 -24 50 -53z m480 -437 c0 -47 -3 -60 -15 -60 -12 0 -15 13 -15 60 0 47 3 60 15 60 12 0 15 -13 15 -60z m0 -150 c0 -29 -4 -40 -15 -40 -10 0 -15 10 -15 33 0 19 3 37 7 40 15 16 23 5 23 -33z"/>
 <path d="M1260 1450 c0 -113 1 -120 20 -120 19 0 20 7 20 90 0 62 -5 100 -15 120 -9 17 -18 30 -20 30 -3 0 -5 -54 -5 -120z"/>
 <path d="M1348 1373 c-28 -7 -21 -41 19 -89 42 -50 55 -54 77 -22 45 64 -15 132 -96 111z"/>
 <path d="M1147 1189 l-98 -109 140 0 c119 0 141 -2 141 -15 0 -13 -24 -15 -154 -15 -93 0 -157 -4 -161 -10 -4 -7 85 -10 260 -10 175 0 264 3 260 10 -3 6 -17 10 -31 10 -25 0 -31 9 -14 26 6 6 -22 46 -83 117 -85 98 -95 106 -127 106 -32 0 -44 -10 -133 -110z m313 -124 c0 -11 -12 -15 -49 -15 -47 0 -68 9 -54 24 3 3 28 6 55 6 36 0 48 -4 48 -15z"/>
 <path d="M2032 1988 c-7 -7 -12 -26 -12 -43 0 -17 5 -36 12 -43 7 -7 26 -12 43 -12 17 0 36 5 43 12 7 7 12 26 12 43 0 17 -5 36 -12 43 -7 7 -26 12 -43 12 -17 0 -36 -5 -43 -12z"/>
 <path d="M2064 478 c-29 -13 -44 -49 -44 -102 0 -64 35 -96 105 -96 43 0 57 5 79 26 45 45 32 149 -21 173 -29 14 -91 13 -119 -1z"/>
 <path d="M1940 330 c0 -27 3 -30 30 -30 27 0 30 3 30 30 0 27 -3 30 -30 30 -27 0 -30 -3 -30 -30z"/>
 </g>
<g id="layer108" fill="#f6c43a" stroke="none">
 <path d="M1066 2214 c-38 -7 -83 -20 -100 -28 -17 -7 -42 -17 -56 -21 -14 -4 -27 -10 -30 -14 -5 -6 -79 -42 -90 -44 -3 0 -9 -4 -15 -9 -140 -111 -185 -153 -239 -221 -37 -45 -70 -87 -75 -93 -6 -7 -7 -15 -4 -18 4 -3 2 -6 -4 -6 -6 0 -13 -9 -16 -20 -4 -16 -14 -20 -52 -20 -38 0 -52 -5 -76 -29 -24 -25 -29 -37 -29 -80 0 -42 5 -55 29 -80 16 -16 32 -27 37 -23 4 4 4 -2 -1 -13 -4 -11 -10 -90 -13 -175 -3 -119 0 -176 13 -245 9 -49 20 -94 25 -100 4 -5 14 -29 21 -52 6 -24 15 -43 19 -43 4 0 13 -18 20 -40 7 -22 18 -40 23 -40 6 0 8 -3 4 -6 -3 -3 -2 -11 4 -18 5 -6 38 -48 75 -93 36 -45 102 -111 147 -147 45 -37 89 -72 97 -79 8 -6 15 -10 15 -8 0 4 79 -32 85 -40 3 -3 23 -12 45 -19 22 -7 45 -16 50 -20 24 -19 185 -40 305 -40 121 0 282 21 305 40 6 4 29 14 53 21 23 6 42 15 42 19 0 4 18 13 40 20 22 7 40 18 40 23 0 6 3 8 6 4 3 -3 11 -2 18 4 6 5 48 38 93 75 45 36 111 102 147 147 37 45 72 89 79 97 6 8 11 16 10 17 -4 4 30 77 38 83 3 3 12 23 19 45 7 22 16 45 20 50 19 24 40 185 40 305 0 120 -21 281 -40 305 -4 6 -13 28 -20 50 -7 22 -16 42 -19 45 -7 6 -44 83 -42 88 1 1 -3 8 -9 15 -5 6 -39 49 -76 94 -36 45 -102 111 -147 147 -45 37 -87 70 -93 75 -7 6 -15 7 -18 4 -3 -4 -6 -2 -6 4 0 5 -18 16 -40 23 -22 7 -40 16 -40 20 0 4 -19 13 -42 19 -24 7 -47 17 -53 21 -44 36 -381 52 -519 24z m679 -363 c49 -23 89 -64 109 -113 24 -56 24 -860 0 -916 -20 -49 -60 -89 -111 -113 -39 -18 -69 -19 -467 -19 -406 0 -427 1 -464 20 -43 22 -78 59 -105 107 -15 28 -17 72 -17 458 0 399 1 429 19 468 11 23 32 54 48 69 60 57 61 57 523 57 393 1 428 -1 465 -18z"/>
 <path d="M854 1706 l-34 -34 0 -392 0 -392 34 -34 34 -34 344 0 c238 0 347 -3 355 -11 17 -17 89 -1 123 28 34 28 58 99 41 116 -15 15 -14 63 1 87 10 16 10 24 0 40 -16 25 -16 122 0 138 10 10 10 17 0 32 -8 14 -12 79 -12 221 l0 201 -34 34 -34 34 -392 0 -392 0 -34 -34z m436 -119 c37 -50 40 -58 40 -119 l0 -66 40 2 c57 3 97 -23 106 -68 8 -46 -1 -80 -27 -105 -20 -19 -20 -20 -2 -39 43 -45 109 -125 117 -142 5 -11 6 -26 3 -34 -6 -14 -42 -16 -285 -16 -330 0 -339 3 -267 85 41 46 146 164 188 209 l27 30 0 158 c0 95 4 158 10 158 5 0 27 -24 50 -53z"/>
 <path d="M1348 1373 c-28 -7 -21 -41 19 -89 42 -50 55 -54 77 -22 45 64 -15 132 -96 111z"/>
 <path d="M2032 1988 c-7 -7 -12 -26 -12 -43 0 -17 5 -36 12 -43 7 -7 26 -12 43 -12 17 0 36 5 43 12 7 7 12 26 12 43 0 17 -5 36 -12 43 -7 7 -26 12 -43 12 -17 0 -36 -5 -43 -12z"/>
 <path d="M2064 478 c-29 -13 -44 -49 -44 -102 0 -64 35 -96 105 -96 43 0 57 5 79 26 45 45 32 149 -21 173 -29 14 -91 13 -119 -1z"/>
 <path d="M1940 330 c0 -27 3 -30 30 -30 27 0 30 3 30 30 0 27 -3 30 -30 30 -27 0 -30 -3 -30 -30z"/>
 </g>
<g id="layer109" fill="#fce0a2" stroke="none">
 <path d="M1066 2214 c-38 -7 -83 -20 -100 -28 -17 -7 -42 -17 -56 -21 -14 -4 -27 -10 -30 -14 -5 -6 -79 -42 -90 -44 -3 0 -9 -4 -15 -9 -140 -111 -185 -153 -239 -221 -37 -45 -70 -87 -75 -93 -6 -7 -7 -15 -4 -18 4 -3 2 -6 -4 -6 -19 0 -26 -53 -9 -66 9 -6 23 -27 31 -48 13 -31 13 -40 1 -70 -17 -42 -51 -66 -92 -66 -21 0 -34 -6 -39 -17 -5 -10 -10 -88 -13 -173 -3 -119 0 -176 13 -245 9 -49 20 -94 25 -100 4 -5 14 -29 21 -52 6 -24 15 -43 19 -43 4 0 13 -18 20 -40 7 -22 18 -40 23 -40 6 0 8 -3 4 -6 -3 -3 -2 -11 4 -18 5 -6 38 -48 75 -93 36 -45 102 -111 147 -147 45 -37 89 -72 97 -79 8 -6 15 -10 15 -8 0 4 79 -32 85 -40 3 -3 23 -12 45 -19 22 -7 45 -16 50 -20 24 -19 185 -40 305 -40 121 0 282 21 305 40 6 4 29 14 53 21 23 6 42 15 42 19 0 4 18 13 40 20 22 7 40 18 40 23 0 6 3 8 6 4 3 -3 11 -2 18 4 6 5 48 38 93 75 45 36 111 102 147 147 37 45 72 89 79 97 6 8 11 16 10 17 -4 4 30 77 38 83 3 3 12 23 19 45 7 22 16 45 20 50 19 24 40 185 40 305 0 120 -21 281 -40 305 -4 6 -13 28 -20 50 -7 22 -16 42 -19 45 -7 6 -44 83 -42 88 1 1 -3 8 -9 15 -5 6 -39 49 -76 94 -36 45 -102 111 -147 147 -45 37 -87 70 -93 75 -7 6 -15 7 -18 4 -3 -4 -6 -2 -6 4 0 5 -18 16 -40 23 -22 7 -40 16 -40 20 0 4 -21 13 -47 20 -27 8 -50 17 -53 21 -3 5 -45 15 -94 24 -109 18 -325 18 -420 -1z m679 -363 c49 -23 89 -64 109 -113 24 -56 24 -860 0 -916 -20 -49 -60 -89 -111 -113 -39 -18 -69 -19 -467 -19 -406 0 -427 1 -464 20 -43 22 -78 59 -105 107 -15 28 -17 72 -17 458 0 399 1 429 19 468 11 23 32 54 48 69 60 57 61 57 523 57 393 1 428 -1 465 -18z m-1185 -136 c0 -18 -5 -25 -19 -25 -11 0 -23 5 -26 10 -11 18 3 40 25 40 15 0 20 -7 20 -25z"/>
 <path d="M854 1706 l-34 -34 0 -392 0 -392 34 -34 34 -34 344 0 c238 0 347 -3 355 -11 17 -17 89 -1 123 28 34 28 58 99 41 116 -15 15 -14 63 1 87 10 16 10 24 0 40 -16 25 -16 122 0 138 10 10 10 17 0 32 -8 14 -12 79 -12 221 l0 201 -34 34 -34 34 -392 0 -392 0 -34 -34z m436 -119 c37 -50 40 -58 40 -119 l0 -66 40 2 c57 3 97 -23 106 -68 8 -46 -1 -80 -27 -105 -20 -19 -20 -20 -2 -39 43 -45 109 -125 117 -142 5 -11 6 -26 3 -34 -6 -14 -42 -16 -285 -16 -330 0 -339 3 -267 85 41 46 146 164 188 209 l27 30 0 158 c0 95 4 158 10 158 5 0 27 -24 50 -53z"/>
 <path d="M1348 1373 c-28 -7 -21 -41 19 -89 42 -50 55 -54 77 -22 45 64 -15 132 -96 111z"/>
 </g>
<g id="layer110" fill="#fefdf3" stroke="none">
 <path d="M854 1706 l-34 -34 0 -392 0 -392 34 -34 34 -34 350 0 c250 0 351 -3 354 -11 6 -19 85 0 118 28 34 28 58 99 41 116 -15 15 -14 63 1 87 10 16 10 24 0 40 -14 24 -16 140 -2 140 6 0 10 7 10 15 0 8 -4 15 -10 15 -6 0 -10 77 -10 211 l0 211 -34 34 -34 34 -392 0 -392 0 -34 -34z m417 -93 c48 -53 59 -80 59 -145 l0 -63 38 0 c76 1 121 -40 117 -109 -1 -29 -9 -45 -29 -61 l-27 -22 33 -35 c120 -129 138 -158 102 -172 -9 -3 -137 -6 -285 -6 -256 0 -309 5 -309 29 0 11 41 60 108 128 28 29 52 58 52 63 0 5 9 15 21 24 12 8 32 31 46 51 24 35 26 48 31 191 3 85 8 154 12 154 3 0 18 -12 31 -27z"/>
 <path d="M1348 1373 c-30 -8 -20 -46 23 -91 l42 -43 23 22 c33 31 30 62 -7 93 -30 25 -45 29 -81 19z"/>
 <path d="M427 1412 c-25 -28 -21 -67 9 -91 15 -12 33 -21 41 -21 21 0 63 46 63 70 0 50 -79 80 -113 42z"/>
 <path d="M2030 885 c-11 -13 -11 -19 3 -33 20 -19 41 -5 35 24 -4 24 -22 28 -38 9z"/>
 </g>

</svg>